<svg width="69" height="21" viewBox="0 0 69 21" fill="none" xmlns="http://www.w3.org/2000/svg">
<path d="M14.568 9.892H18.712V20H15.296V18.824C13.9333 19.832 12.1787 20.336 10.032 20.336C8.22133 20.336 6.56 19.944 5.048 19.16C3.536 18.376 2.332 17.2373 1.436 15.744C0.54 14.232 0.092 12.44 0.092 10.368C0.092 8.37067 0.549333 6.59733 1.464 5.048C2.39733 3.48 3.68533 2.25733 5.328 1.38C6.97067 0.502666 8.81867 0.0639997 10.872 0.0639997C12.5893 0.0639997 14.148 0.353333 15.548 0.931998C16.948 1.51067 18.124 2.35067 19.076 3.452L16.164 6.14C14.764 4.66533 13.0747 3.928 11.096 3.928C9.84533 3.928 8.73467 4.19867 7.764 4.74C6.79333 5.26267 6.03733 6.00933 5.496 6.98C4.95467 7.95067 4.684 9.07067 4.684 10.34C4.684 11.6653 4.94533 12.7947 5.468 13.728C6.00933 14.6613 6.728 15.3707 7.624 15.856C8.52 16.3227 9.5 16.556 10.564 16.556C12.1507 16.556 13.4853 16.108 14.568 15.212V9.892ZM30.2056 16.724C30.9896 16.724 31.6802 16.612 32.2776 16.388C32.8936 16.1453 33.4629 15.772 33.9856 15.268L36.3096 17.788C34.8909 19.412 32.8189 20.224 30.0936 20.224C28.3949 20.224 26.8922 19.8973 25.5856 19.244C24.2789 18.572 23.2709 17.648 22.5616 16.472C21.8522 15.296 21.4976 13.9613 21.4976 12.468C21.4976 10.9933 21.8429 9.668 22.5336 8.492C23.2429 7.29733 24.2042 6.37333 25.4176 5.72C26.6496 5.048 28.0309 4.712 29.5616 4.712C30.9989 4.712 32.3056 5.02 33.4816 5.636C34.6576 6.23333 35.5909 7.11067 36.2816 8.268C36.9909 9.40667 37.3456 10.76 37.3456 12.328L26.2016 14.484C26.5189 15.2307 27.0136 15.7907 27.6856 16.164C28.3762 16.5373 29.2162 16.724 30.2056 16.724ZM29.5616 8.016C28.4602 8.016 27.5642 8.37067 26.8736 9.08C26.1829 9.78933 25.8189 10.7693 25.7816 12.02L33.1176 10.592C32.9122 9.808 32.4922 9.18267 31.8576 8.716C31.2229 8.24933 30.4576 8.016 29.5616 8.016ZM55.5696 4.936V20H51.3976V18.264C50.315 19.5707 48.747 20.224 46.6936 20.224C45.275 20.224 43.987 19.9067 42.8296 19.272C41.691 18.6373 40.795 17.732 40.1416 16.556C39.4883 15.38 39.1616 14.0173 39.1616 12.468C39.1616 10.9187 39.4883 9.556 40.1416 8.38C40.795 7.204 41.691 6.29867 42.8296 5.664C43.987 5.02933 45.275 4.712 46.6936 4.712C48.6163 4.712 50.119 5.31867 51.2016 6.532V4.936H55.5696ZM47.4496 16.64C48.551 16.64 49.4656 16.2667 50.1936 15.52C50.9216 14.7547 51.2856 13.7373 51.2856 12.468C51.2856 11.1987 50.9216 10.1907 50.1936 9.444C49.4656 8.67867 48.551 8.296 47.4496 8.296C46.3296 8.296 45.4056 8.67867 44.6776 9.444C43.9496 10.1907 43.5856 11.1987 43.5856 12.468C43.5856 13.7373 43.9496 14.7547 44.6776 15.52C45.4056 16.2667 46.3296 16.64 47.4496 16.64ZM63.7857 6.924C64.3083 6.196 65.0083 5.64533 65.8857 5.272C66.7817 4.89867 67.8083 4.712 68.9657 4.712V8.744C68.4803 8.70667 68.1537 8.688 67.9857 8.688C66.735 8.688 65.755 9.04267 65.0457 9.752C64.3363 10.4427 63.9817 11.488 63.9817 12.888V20H59.6137V4.936H63.7857V6.924Z" fill="#F4F4F4"/>
</svg>
